<svg xmlns="http://www.w3.org/2000/svg" viewBox="0 0 600 460"><defs><linearGradient id="g" x1="0" x2="1"><stop stop-color="#206bc4"/><stop offset="1" stop-color="#2fb344"/></linearGradient></defs><rect x="70" y="75" width="460" height="310" rx="42" fill="#eef6ff"/><circle cx="450" cy="140" r="54" fill="#d9f7e5"/><circle cx="170" cy="315" r="74" fill="#d8ecff"/><path d="M269 169c-33-51-103-25-94 35 4 27 28 48 63 57l31 8 31-8c35-9 59-30 63-57 9-60-61-86-94-35z" fill="url(#g)"/><circle cx="226" cy="128" r="35" fill="#206bc4"/><circle cx="312" cy="128" r="35" fill="#2fb344"/><circle cx="182" cy="194" r="30" fill="#74c0fc"/><circle cx="356" cy="194" r="30" fill="#69db7c"/><path d="M205 315h128a34 34 0 0 1 34 34v18H171v-18a34 34 0 0 1 34-34z" fill="#fff" stroke="#206bc4" stroke-width="10"/><path d="M233 338h72" stroke="#2fb344" stroke-width="14" stroke-linecap="round"/><text x="300" y="425" text-anchor="middle" font-family="Arial" font-weight="700" font-size="32" fill="#0f172a">CliniPet</text></svg>
